<?xml version="1.0" standalone="no"?>
<!DOCTYPE svg PUBLIC "-//W3C//DTD SVG 20010904//EN"
 "http://www.w3.org/TR/2001/REC-SVG-20010904/DTD/svg10.dtd">
<svg version="1.0" xmlns="http://www.w3.org/2000/svg"
 width="341.000000pt" height="341.000000pt" viewBox="0 0 341.000000 341.000000"
 preserveAspectRatio="xMidYMid meet">
<metadata>
Created by potrace 1.14, written by Peter Selinger 2001-2017
</metadata>
<g transform="translate(0.000000,341.000000) scale(0.100000,-0.100000)"
fill="#000000" stroke="none">
<path d="M1190 2225 c0 -882 0 -884 -51 -949 -66 -84 -278 -101 -364 -28 -25
21 -64 83 -70 111 -3 12 -7 31 -10 44 -9 37 -17 138 -18 222 l-2 80 -214 0
-214 0 6 -160 c2 -88 12 -196 21 -240 22 -108 84 -232 146 -293 72 -71 197
-132 298 -148 21 -3 55 -9 76 -14 64 -14 293 -10 380 6 43 8 100 24 127 34
l49 20 0 -24 0 -24 263 -1 264 0 1 457 c0 251 1 473 1 492 l1 35 378 -1 c207
-1 380 -2 383 -3 3 0 6 -220 6 -488 l1 -488 203 0 204 0 1 1093 1 1092 -203 0
c-187 0 -204 -1 -205 -17 0 -10 -1 -205 -2 -433 l-2 -415 -382 -3 c-360 -2
-383 -1 -384 15 0 10 -1 205 -2 433 l-2 415 -342 1 -343 0 0 -821z"/>
</g>
</svg>
